<svg width="35" height="33" viewBox="0 0 35 33" fill="none" xmlns="http://www.w3.org/2000/svg">
<rect width="35" height="32.7419" rx="16.371" fill="white"/>
<path d="M10.5359 18.2321C9.98361 17.2755 10.3114 16.0523 11.2679 15.5V15.5C12.2245 14.9477 13.4477 15.2755 14 16.2321L17 21.4282C17.5523 22.3848 17.2245 23.608 16.2679 24.1603V24.1603C15.3114 24.7125 14.0882 24.3848 13.5359 23.4282L10.5359 18.2321Z" fill="#134A21"/>
<path d="M21.7534 7.55706C22.3057 6.60048 23.5289 6.27273 24.4855 6.82501V6.82501C25.4421 7.3773 25.7698 8.60048 25.2175 9.55706L17.2175 23.4135C16.6652 24.3701 15.4421 24.6978 14.4855 24.1455V24.1455C13.5289 23.5932 13.2011 22.3701 13.7534 21.4135L21.7534 7.55706Z" fill="#134A21"/>
</svg>
