<svg width="30" height="30" viewBox="0 0 30 30" fill="none" xmlns="http://www.w3.org/2000/svg">
<rect width="30" height="30" rx="15" fill="#134A21"/>
<path d="M9.15186 14.8557C8.73764 14.1382 8.98345 13.2209 9.70089 12.8066V12.8066C10.4183 12.3924 11.3357 12.6382 11.7499 13.3557L15.2499 19.4179C15.6641 20.1353 15.4183 21.0527 14.7009 21.4669V21.4669C13.9835 21.8811 13.0661 21.6353 12.6519 20.9179L9.15186 14.8557Z" fill="white"/>
<path d="M19.25 8.29904C19.6642 7.5816 20.5816 7.33579 21.299 7.75V7.75C22.0165 8.16421 22.2623 9.0816 21.8481 9.79904L15.3481 21.0574C14.9339 21.7748 14.0165 22.0206 13.299 21.6064V21.6064C12.5816 21.1922 12.3358 20.2748 12.75 19.5574L19.25 8.29904Z" fill="white"/>
</svg>
