<svg width="141" height="35" viewBox="0 0 141 35" fill="none" xmlns="http://www.w3.org/2000/svg">
<path d="M11.0234 10.7031H9.26562V2.92188H7.22656C6.39844 2.92188 5.67969 2.99219 5.07031 3.13281C4.46094 3.27344 3.95312 3.51562 3.54688 3.85938C3.15625 4.1875 2.86719 4.64062 2.67969 5.21875C2.49219 5.79688 2.39844 6.52344 2.39844 7.39844V29.3359C2.39844 29.8516 2.48438 30.3281 2.65625 30.7656C2.82812 31.1875 3.0625 31.5625 3.35938 31.8906C3.65625 32.2031 4.00781 32.4531 4.41406 32.6406C4.83594 32.8125 5.29688 32.8984 5.79688 32.8984C6.32812 32.8984 6.80469 32.8047 7.22656 32.6172C7.64844 32.4297 8.00781 32.1797 8.30469 31.8672C8.61719 31.5391 8.85156 31.1641 9.00781 30.7422C9.17969 30.3047 9.26562 29.8359 9.26562 29.3359V18.6016H6.28906V17.0312H11.0234V29.3594C11.0234 30.1094 10.8828 30.7969 10.6016 31.4219C10.3359 32.0469 9.96875 32.5859 9.5 33.0391C9.03125 33.4922 8.47656 33.8438 7.83594 34.0938C7.21094 34.3438 6.53906 34.4688 5.82031 34.4688C5.07031 34.4688 4.375 34.3359 3.73438 34.0703C3.10938 33.8047 2.5625 33.4453 2.09375 32.9922C1.64062 32.5391 1.28125 32 1.01562 31.375C0.765625 30.75 0.640625 30.0781 0.640625 29.3594V8.17188C0.640625 7.65625 0.648438 7.125 0.664062 6.57812C0.695312 6.03125 0.765625 5.50781 0.875 5.00781C0.984375 4.50781 1.16406 4.03906 1.41406 3.60156C1.66406 3.14844 2.00781 2.75781 2.44531 2.42969C2.89844 2.08594 3.46875 1.82031 4.15625 1.63281C4.85938 1.44531 5.71875 1.35156 6.73438 1.35156H11.0234V10.7031ZM24.3594 34H22.6016V20.4297H16.0859V34H14.3281V8.17188C14.3281 7.39063 14.3594 6.59375 14.4219 5.78125C14.4844 4.96875 14.7031 4.23438 15.0781 3.57812C15.4688 2.92188 16.0703 2.39062 16.8828 1.98438C17.7109 1.5625 18.8828 1.35156 20.3984 1.35156H24.3594V34ZM20.9375 2.92188C20.0938 2.92188 19.3672 2.99219 18.7578 3.13281C18.1484 3.27344 17.6406 3.51562 17.2344 3.85938C16.8438 4.1875 16.5547 4.64062 16.3672 5.21875C16.1797 5.79688 16.0859 6.52344 16.0859 7.39844V18.8594H22.6016V2.92188H20.9375ZM38.7266 3.13281C38.7266 5.00781 38.6641 6.69531 38.5391 8.19531C38.4297 9.67969 38.25 11.0234 38 12.2266C37.7656 13.4141 37.4531 14.4688 37.0625 15.3906C36.6719 16.3125 36.2031 17.1328 35.6562 17.8516C35.7188 18.1016 35.8125 18.5312 35.9375 19.1406C36.0781 19.7344 36.2422 20.4375 36.4297 21.25C36.6172 22.0469 36.8203 22.9219 37.0391 23.875C37.2578 24.8125 37.4766 25.7578 37.6953 26.7109C37.9141 27.6484 38.125 28.5547 38.3281 29.4297C38.5312 30.3047 38.7109 31.0859 38.8672 31.7734C39.0234 32.4453 39.1953 33.1875 39.3828 34H37.5078L34.25 19.3516C33.6719 19.8516 33.0391 20.3047 32.3516 20.7109C31.6641 21.1016 30.9062 21.4688 30.0781 21.8125V34H28.3438V8.17188C28.3438 7.65625 28.3516 7.125 28.3672 6.57812C28.3984 6.03125 28.4688 5.50781 28.5781 5.00781C28.6875 4.50781 28.8672 4.03906 29.1172 3.60156C29.3672 3.14844 29.7109 2.75781 30.1484 2.42969C30.6016 2.08594 31.1719 1.82031 31.8594 1.63281C32.5625 1.44531 33.4219 1.35156 34.4375 1.35156H38.7266V3.13281ZM30.0781 19.8906C30.5156 19.7031 30.9922 19.4844 31.5078 19.2344C32.0234 18.9688 32.5312 18.6172 33.0312 18.1797C33.5469 17.7422 34.0391 17.1875 34.5078 16.5156C34.9922 15.8281 35.4141 14.9766 35.7734 13.9609C36.1328 12.9297 36.4219 11.6953 36.6406 10.2578C36.8594 8.80469 36.9688 7.09375 36.9688 5.125V2.92188H34.9062C34.0781 2.92188 33.3594 2.99219 32.75 3.13281C32.1406 3.27344 31.6328 3.51562 31.2266 3.85938C30.8359 4.1875 30.5469 4.64062 30.3594 5.21875C30.1719 5.79688 30.0781 6.52344 30.0781 7.39844V19.8906ZM52.5078 27.1797C52.5078 27.6953 52.5 28.2266 52.4844 28.7734C52.4688 29.3047 52.3984 29.8281 52.2734 30.3438C52.1641 30.8438 51.9844 31.3203 51.7344 31.7734C51.5 32.2109 51.1562 32.5938 50.7031 32.9219C50.2656 33.25 49.6953 33.5156 48.9922 33.7188C48.3047 33.9062 47.4609 34 46.4609 34H42.125V1.35156H46.4609C47.4609 1.35156 48.3047 1.44531 48.9922 1.63281C49.6953 1.82031 50.2656 2.08594 50.7031 2.42969C51.1562 2.75781 51.5 3.14844 51.7344 3.60156C51.9844 4.03906 52.1641 4.50781 52.2734 5.00781C52.3984 5.50781 52.4688 6.03125 52.4844 6.57812C52.5 7.125 52.5078 7.65625 52.5078 8.17188V27.1797ZM50.75 7.39844C50.75 6.52344 50.6562 5.79688 50.4688 5.21875C50.2812 4.64062 49.9922 4.1875 49.6016 3.85938C49.2109 3.51562 48.7109 3.27344 48.1016 3.13281C47.5078 2.99219 46.7891 2.92188 45.9453 2.92188H43.8828V32.4297H45.9453C46.7891 32.4297 47.5078 32.3672 48.1016 32.2422C48.7109 32.1016 49.2109 31.8672 49.6016 31.5391C49.9922 31.1953 50.2812 30.7344 50.4688 30.1562C50.6562 29.5781 50.75 28.8516 50.75 27.9766V7.39844ZM57.8047 15.5312H64.6484V17.1016H57.8047V32.4297H65.2109V34H56.0469V8.17188C56.0469 7.65625 56.0547 7.125 56.0703 6.57812C56.1016 6.03125 56.1719 5.50781 56.2812 5.00781C56.3906 4.50781 56.5703 4.03906 56.8203 3.60156C57.0703 3.14844 57.4141 2.75781 57.8516 2.42969C58.3047 2.08594 58.875 1.82031 59.5625 1.63281C60.2656 1.44531 61.125 1.35156 62.1406 1.35156H64.625V2.92188H62.6328C61.8047 2.92188 61.0859 2.99219 60.4766 3.13281C59.8672 3.27344 59.3594 3.51562 58.9531 3.85938C58.5625 4.1875 58.2734 4.64062 58.0859 5.21875C57.8984 5.79688 57.8047 6.52344 57.8047 7.39844V15.5312ZM76.6719 7.51562V1.35156H78.4297V34H76.6719V16.2109C76.6719 14.3203 76.4844 12.6562 76.1094 11.2188C75.75 9.78125 75.2578 8.53906 74.6328 7.49219C74.0078 6.44531 73.2734 5.57812 72.4297 4.89062C71.6016 4.20313 70.7188 3.66406 69.7812 3.27344V34H68.0234V1.35156H69.4297C70.1797 1.58594 70.8984 1.89844 71.5859 2.28906C72.2891 2.66406 72.9453 3.11719 73.5547 3.64844C74.1797 4.16406 74.7422 4.75 75.2422 5.40625C75.7422 6.04687 76.1719 6.75 76.5312 7.51562H76.6719ZM89.9609 29.3359C89.9609 29.8516 90.0469 30.3281 90.2188 30.7656C90.3906 31.1875 90.625 31.5625 90.9219 31.8906C91.2188 32.2031 91.5703 32.4531 91.9766 32.6406C92.3984 32.8125 92.8594 32.8984 93.3594 32.8984C93.8906 32.8984 94.3672 32.8047 94.7891 32.6172C95.2109 32.4297 95.5703 32.1797 95.8672 31.8672C96.1797 31.5391 96.4141 31.1641 96.5703 30.7422C96.7422 30.3047 96.8281 29.8359 96.8281 29.3359V21.3672C96.8281 20.8203 96.7188 20.3047 96.5 19.8203C96.2812 19.3359 95.9844 18.8672 95.6094 18.4141C95.25 17.9609 94.8359 17.5234 94.3672 17.1016C93.8984 16.6797 93.4219 16.2656 92.9375 15.8594C92.3594 15.375 91.7812 14.8828 91.2031 14.3828C90.6406 13.8828 90.1328 13.3516 89.6797 12.7891C89.2422 12.2266 88.8828 11.625 88.6016 10.9844C88.3359 10.3438 88.2031 9.63281 88.2031 8.85156V5.99219C88.2031 5.24219 88.3359 4.55469 88.6016 3.92969C88.8828 3.28906 89.2578 2.75 89.7266 2.3125C90.1953 1.85938 90.7422 1.50781 91.3672 1.25781C92.0078 1.00781 92.6797 0.882812 93.3828 0.882812C94.1328 0.882812 94.8203 1.01563 95.4453 1.28125C96.0859 1.54687 96.6406 1.91406 97.1094 2.38281C97.5781 2.83594 97.9375 3.375 98.1875 4C98.4531 4.60938 98.5859 5.27344 98.5859 5.99219V10.7969H96.8281V6.01562C96.8281 5.5 96.7422 5.03125 96.5703 4.60938C96.3984 4.17187 96.1641 3.79687 95.8672 3.48438C95.5703 3.15625 95.2109 2.90625 94.7891 2.73438C94.3672 2.54688 93.9141 2.45312 93.4297 2.45312C92.8984 2.45312 92.4141 2.54688 91.9766 2.73438C91.5547 2.92188 91.1953 3.17969 90.8984 3.50781C90.6016 3.82031 90.3672 4.19531 90.1953 4.63281C90.0391 5.05469 89.9609 5.51563 89.9609 6.01562V8.85156C89.9609 9.42969 90.0781 9.97656 90.3125 10.4922C90.5469 10.9922 90.8516 11.4766 91.2266 11.9453C91.6172 12.3984 92.0547 12.8359 92.5391 13.2578C93.0234 13.6797 93.5156 14.1016 94.0156 14.5234C94.5781 14.9922 95.1328 15.4766 95.6797 15.9766C96.2266 16.4766 96.7109 17.0078 97.1328 17.5703C97.5703 18.1328 97.9219 18.7266 98.1875 19.3516C98.4531 19.9766 98.5859 20.6484 98.5859 21.3672V29.3594C98.5859 30.1094 98.4453 30.7969 98.1641 31.4219C97.8984 32.0469 97.5312 32.5859 97.0625 33.0391C96.5938 33.4922 96.0391 33.8438 95.3984 34.0938C94.7734 34.3438 94.1016 34.4688 93.3828 34.4688C92.6328 34.4688 91.9375 34.3359 91.2969 34.0703C90.6719 33.8047 90.125 33.4453 89.6562 32.9922C89.2031 32.5391 88.8438 32 88.5781 31.375C88.3281 30.75 88.2031 30.0781 88.2031 29.3594V24.2969H89.9609V29.3359ZM112.508 34H110.75V17.1016H103.883V34H102.125V1.35156H103.883V15.5312H110.75V1.35156H112.508V34ZM126.547 27.8594C126.547 28.7188 126.469 29.5469 126.312 30.3438C126.156 31.1406 125.875 31.8438 125.469 32.4531C125.078 33.0625 124.539 33.5547 123.852 33.9297C123.18 34.2891 122.328 34.4688 121.297 34.4688C120.328 34.4688 119.516 34.2969 118.859 33.9531C118.203 33.5938 117.672 33.1172 117.266 32.5234C116.875 31.9297 116.594 31.2344 116.422 30.4375C116.25 29.625 116.164 28.7656 116.164 27.8594V7.72656C116.164 7.21094 116.172 6.67969 116.188 6.13281C116.219 5.58594 116.289 5.0625 116.398 4.5625C116.508 4.0625 116.688 3.59375 116.938 3.15625C117.188 2.70313 117.531 2.3125 117.969 1.98438C118.422 1.64062 118.992 1.375 119.68 1.1875C120.383 1 121.242 0.90625 122.258 0.90625H126.547V27.8594ZM124.789 2.47656H122.75C121.922 2.47656 121.203 2.54688 120.594 2.6875C119.984 2.82812 119.477 3.07031 119.07 3.41406C118.68 3.74219 118.391 4.19531 118.203 4.77344C118.016 5.35156 117.922 6.07813 117.922 6.95312V28.6328C117.922 29.1953 117.977 29.7344 118.086 30.25C118.211 30.75 118.406 31.2031 118.672 31.6094C118.953 32 119.312 32.3125 119.75 32.5469C120.188 32.7812 120.734 32.8984 121.391 32.8984C122.016 32.8984 122.539 32.7891 122.961 32.5703C123.398 32.3359 123.75 32.0234 124.016 31.6328C124.281 31.2422 124.477 30.7891 124.602 30.2734C124.727 29.7578 124.789 29.2109 124.789 28.6328V2.47656ZM140.703 3.13281C140.703 6.13281 140.555 8.67187 140.258 10.75C139.961 12.8125 139.469 14.5547 138.781 15.9766C138.109 17.3828 137.219 18.5391 136.109 19.4453C135.016 20.3516 133.664 21.1406 132.055 21.8125V34H130.297V8.17188C130.297 7.39063 130.328 6.59375 130.391 5.78125C130.469 4.96875 130.695 4.23438 131.07 3.57812C131.461 2.92188 132.07 2.39062 132.898 1.98438C133.727 1.5625 134.898 1.35156 136.414 1.35156H140.703V3.13281ZM132.055 20.0078C132.492 19.8203 132.969 19.5938 133.484 19.3281C134 19.0625 134.508 18.7109 135.008 18.2734C135.523 17.8203 136.016 17.25 136.484 16.5625C136.969 15.875 137.391 15.0156 137.75 13.9844C138.109 12.9375 138.398 11.6953 138.617 10.2578C138.836 8.80469 138.945 7.09375 138.945 5.125V2.92188H136.883C136.055 2.92188 135.336 2.99219 134.727 3.13281C134.117 3.27344 133.609 3.51562 133.203 3.85938C132.812 4.1875 132.523 4.64062 132.336 5.21875C132.148 5.79688 132.055 6.52344 132.055 7.39844V20.0078Z" fill="white"/>
</svg>
