<svg width="233" height="195" viewBox="0 0 233 195" fill="none" xmlns="http://www.w3.org/2000/svg">
<g clip-path="url(#clip0_9_119)">
<path d="M29.3763 -16.2195L69.3501 -24.2451C86.7028 -27.729 103.259 -15.4368 104.944 2.18179L108.453 26.5807C110.93 43.8055 129.667 53.4326 145.113 45.4165L146.14 44.8832C162.834 36.2193 182.68 48.7359 182.054 67.5338L181.988 69.5124C181.43 86.295 198.269 98.1407 213.875 91.9437L215.872 91.1509C232.087 84.7124 249.025 98.7021 245.766 115.841C242.902 130.909 255.867 144.248 271.01 141.813L315.629 134.637" stroke="#5A8364"/>
<path d="M309.665 143.076L269.691 151.101C252.339 154.585 235.782 142.293 234.097 124.674L230.589 100.276C228.112 83.0508 209.375 73.4237 193.929 81.4398L192.901 81.9731C176.207 90.637 156.361 78.1204 156.987 59.3225L157.053 57.3439C157.612 40.5613 140.773 28.7156 125.166 34.9126L123.169 35.7054C106.955 42.1439 90.0164 28.1542 93.275 11.0149C96.1398 -4.05252 83.1744 -17.3917 68.0317 -14.9564L23.4128 -7.78055" stroke="#5A8364"/>
<path d="M293.659 150.132L253.685 158.157C236.332 161.641 219.776 149.349 218.091 131.73L214.582 107.332C212.105 90.1067 193.368 80.4796 177.922 88.4957L176.895 89.029C160.201 97.6929 140.355 85.1763 140.981 66.3784L141.046 64.3998C141.605 47.6173 124.766 35.7715 109.16 41.9685L107.163 42.7613C90.9479 49.1998 74.0097 35.2101 77.2683 18.0709C80.1331 3.00349 67.1677 -10.3358 52.025 -7.9004L7.40613 -0.724532" stroke="#5A8364"/>
</g>
<defs>
<clipPath id="clip0_9_119">
<rect width="233" height="195" fill="white"/>
</clipPath>
</defs>
</svg>
