<svg width="233" height="195" viewBox="0 0 233 195" fill="none" xmlns="http://www.w3.org/2000/svg">
<path d="M29.3764 -16.2195L69.3502 -24.2451C86.7029 -27.729 103.259 -15.4368 104.944 2.1818V2.1818L108.453 26.5807C110.93 43.8055 129.667 53.4326 145.113 45.4165L146.14 44.8832C162.834 36.2193 182.68 48.7359 182.054 67.5338L181.988 69.5124C181.43 86.295 198.269 98.1407 213.875 91.9437L215.872 91.1509C232.087 84.7124 249.025 98.7021 245.766 115.841V115.841C242.902 130.909 255.867 144.248 271.01 141.813L315.629 134.637" stroke="white"/>
<path d="M309.665 143.076L269.691 151.101C252.339 154.585 235.782 142.293 234.097 124.674V124.674L230.589 100.276C228.112 83.0507 209.375 73.4236 193.929 81.4397L192.901 81.973C176.207 90.6369 156.361 78.1203 156.987 59.3224L157.053 57.3438C157.612 40.5612 140.773 28.7155 125.166 34.9125L123.169 35.7053C106.955 42.1438 90.0164 28.1541 93.275 11.0148V11.0148C96.1398 -4.05257 83.1744 -17.3918 68.0317 -14.9565L23.4128 -7.7806" stroke="white"/>
<path d="M293.659 150.132L253.685 158.157C236.332 161.641 219.776 149.349 218.091 131.73V131.73L214.582 107.332C212.105 90.1067 193.368 80.4796 177.922 88.4957L176.895 89.029C160.201 97.6929 140.355 85.1763 140.981 66.3784L141.046 64.3998C141.605 47.6173 124.766 35.7715 109.16 41.9685L107.163 42.7613C90.948 49.1998 74.0098 35.2101 77.2684 18.0709V18.0709C80.1332 3.00346 67.1678 -10.3358 52.0251 -7.90043L7.40618 -0.724561" stroke="white"/>
</svg>
