<svg width="233" height="195" viewBox="0 0 233 195" fill="none" xmlns="http://www.w3.org/2000/svg">
<g clip-path="url(#clip0_9_99)">
<path d="M203.624 211.22L163.65 219.245C146.297 222.729 129.741 210.437 128.056 192.818L124.547 168.419C122.07 151.195 103.333 141.567 87.887 149.584L86.86 150.117C70.166 158.781 50.32 146.264 50.946 127.466L51.012 125.488C51.57 108.705 34.731 96.8593 19.125 103.056L17.128 103.849C0.913006 110.288 -16.025 96.2979 -12.766 79.159C-9.90201 64.091 -22.867 50.752 -38.01 53.187L-82.629 60.363" stroke="#5A8364"/>
<path d="M-76.665 51.924L-36.691 43.899C-19.339 40.415 -2.782 52.707 -1.097 70.326L2.411 94.724C4.888 111.949 23.625 121.576 39.071 113.56L40.099 113.027C56.793 104.363 76.639 116.88 76.013 135.678L75.947 137.656C75.388 154.439 92.227 166.285 107.834 160.088L109.831 159.295C126.045 152.856 142.984 166.846 139.725 183.985C136.86 199.053 149.826 212.392 164.968 209.957L209.587 202.781" stroke="#5A8364"/>
<path d="M-60.659 44.868L-20.685 36.843C-3.332 33.359 13.224 45.651 14.909 63.27L18.418 87.668C20.895 104.893 39.632 114.52 55.078 106.504L56.105 105.971C72.799 97.3071 92.645 109.824 92.019 128.622L91.954 130.6C91.395 147.383 108.234 159.229 123.84 153.032L125.837 152.239C142.052 145.8 158.99 159.79 155.732 176.929C152.867 191.997 165.832 205.336 180.975 202.9L225.594 195.725" stroke="#5A8364"/>
</g>
<defs>
<clipPath id="clip0_9_99">
<rect width="233" height="195" fill="white" transform="matrix(-1 0 0 -1 233 195)"/>
</clipPath>
</defs>
</svg>
