<svg width="24" height="25" viewBox="0 0 24 25" fill="none" xmlns="http://www.w3.org/2000/svg">
<path d="M16.3748 3.85055C17.5342 3.85395 18.6451 4.30794 19.4648 5.11337C20.2846 5.9188 20.7467 7.01021 20.7502 8.14925V16.7457C20.7467 17.8848 20.2846 18.9762 19.4648 19.7816C18.6451 20.587 17.5342 21.041 16.3748 21.0444H7.62516C6.46582 21.041 5.35495 20.587 4.53517 19.7816C3.71539 18.9762 3.25331 17.8848 3.24984 16.7457V8.14925C3.25331 7.01021 3.71539 5.9188 4.53517 5.11337C5.35495 4.30794 6.46582 3.85395 7.62516 3.85055H16.3748ZM16.3748 2.13135H7.62516C4.25625 2.13135 1.5 4.83934 1.5 8.14925V16.7457C1.5 20.0557 4.25625 22.7636 7.62516 22.7636H16.3748C19.7437 22.7636 22.5 20.0557 22.5 16.7457V8.14925C22.5 4.83934 19.7437 2.13135 16.3748 2.13135Z" fill="white"/>
<path d="M17.6873 8.14935C17.4278 8.14935 17.174 8.07372 16.9582 7.93203C16.7423 7.79033 16.5741 7.58894 16.4748 7.35331C16.3754 7.11768 16.3494 6.8584 16.4001 6.60826C16.4507 6.35812 16.5757 6.12835 16.7593 5.948C16.9428 5.76766 17.1767 5.64485 17.4313 5.59509C17.6859 5.54533 17.9498 5.57087 18.1896 5.66847C18.4294 5.76607 18.6344 5.93135 18.7786 6.14341C18.9229 6.35547 18.9998 6.60479 18.9998 6.85983C19.0002 7.02928 18.9665 7.19712 18.9007 7.35374C18.8349 7.51036 18.7382 7.65266 18.6163 7.77247C18.4943 7.89229 18.3495 7.98726 18.1901 8.05193C18.0306 8.11661 17.8598 8.14971 17.6873 8.14935ZM12 9.00872C12.6923 9.00872 13.369 9.21041 13.9446 9.58828C14.5202 9.96614 14.9688 10.5032 15.2337 11.1316C15.4986 11.76 15.568 12.4514 15.4329 13.1185C15.2978 13.7856 14.9645 14.3983 14.475 14.8792C13.9855 15.3602 13.3618 15.6877 12.6828 15.8204C12.0039 15.9531 11.3001 15.885 10.6606 15.6247C10.021 15.3644 9.47433 14.9236 9.08973 14.3581C8.70513 13.7926 8.49985 13.1277 8.49985 12.4476C8.50084 11.5358 8.86992 10.6617 9.52611 10.017C10.1823 9.37232 11.072 9.0097 12 9.00872ZM12 7.28952C10.9617 7.28952 9.94662 7.59203 9.08326 8.15881C8.2199 8.72559 7.54699 9.53117 7.14963 10.4737C6.75227 11.4162 6.64831 12.4533 6.85088 13.4539C7.05345 14.4545 7.55347 15.3735 8.28769 16.0949C9.02192 16.8163 9.95738 17.3075 10.9758 17.5066C11.9942 17.7056 13.0498 17.6034 14.0091 17.213C14.9684 16.8226 15.7883 16.1615 16.3652 15.3133C16.9421 14.465 17.25 13.4678 17.25 12.4476C17.25 11.0796 16.6969 9.76761 15.7123 8.80028C14.7277 7.83296 13.3924 7.28952 12 7.28952Z" fill="white"/>
</svg>
